<svg width="39" height="40" viewBox="0 0 39 40" fill="none" xmlns="http://www.w3.org/2000/svg">
<path d="M2.6138 37.5746C3.06619 37.7003 3.41177 38.0961 3.41177 38.6239C3.41177 39.5224 2.74575 39.9999 1.69018 39.9999H0L0.464956 35.6017H2.0546C2.85885 35.6017 3.30495 36.0289 3.30495 36.6133C3.30495 37.0908 3.02221 37.4175 2.6138 37.5746ZM0.904778 39.2773H1.69646C2.26823 39.2773 2.60124 39.0009 2.60124 38.5422C2.60124 38.1715 2.34363 37.9893 1.83469 37.9893H1.03673L0.904778 39.2773ZM1.9415 36.3243H1.21265L1.09956 37.3233H1.79699C2.22425 37.3233 2.48186 37.0845 2.48186 36.7327C2.48186 36.4625 2.29965 36.3243 1.9415 36.3243Z" fill="#1ED1A8"/>
<path d="M5.58599 38.1589L5.47289 39.2396H7.38926L7.30758 39.9999H4.56812L5.03307 35.6017H7.71599L7.63431 36.3619H5.77449L5.66767 37.4175H7.08139L6.99971 38.1589H5.58599Z" fill="#1ED1A8"/>
<path d="M9.03529 35.6017H12.0701L11.9884 36.3619H10.8826L10.4993 39.9999H9.67618L10.0595 36.3619H8.95361L9.03529 35.6017Z" fill="#1ED1A8"/>
<path d="M13.3017 35.6017H16.3364L16.2547 36.3619H15.1489L14.7656 39.9999H13.9425L14.3258 36.3619H13.22L13.3017 35.6017Z" fill="#1ED1A8"/>
<path d="M18.2151 38.1589L18.102 39.2396H20.0184L19.9367 39.9999H17.1973L17.6622 35.6017H20.3451L20.2635 36.3619H18.4036L18.2968 37.4175H19.7105L19.6289 38.1589H18.2151Z" fill="#1ED1A8"/>
<path d="M23.7884 38.3726L24.6931 39.9999H23.8324L23.0155 38.5045H22.2741L22.117 39.9999H21.2939L21.7589 35.6017H23.2543C23.7444 35.6017 24.1214 35.7399 24.3916 36.0227C24.6617 36.2991 24.7685 36.6635 24.7183 37.1159C24.6617 37.694 24.3224 38.1464 23.7884 38.3726ZM22.5003 36.3619L22.3495 37.7945H22.9778C23.4993 37.7945 23.8575 37.5495 23.9077 37.0405C23.958 36.5819 23.6816 36.3619 23.1601 36.3619H22.5003Z" fill="#1ED1A8"/>
<path d="M26.5778 39.6481H28.1863L28.1298 40H26.0752L26.8543 35.5703H27.3004L26.5778 39.6481Z" fill="#1ED1A8"/>
<path d="M30.681 35.5703L29.9019 40H29.4558L30.2349 35.5703H30.681Z" fill="#1ED1A8"/>
<path d="M34.7644 35.5703L34.7016 35.9285H32.7412L32.4459 37.6186H34.1424L34.0796 37.9642H32.3831L32.025 40H31.5789L32.358 35.5703H34.7644Z" fill="#1ED1A8"/>
<path d="M36.5801 35.9285L36.2848 37.5998H38.019L37.9498 37.9454H36.222L35.9267 39.6355H37.843L37.7802 40H35.4177L36.1968 35.5703H38.5593L38.4965 35.9285H36.5801Z" fill="#1ED1A8"/>
<path d="M19.3189 32.2956C15.0055 32.2956 10.9504 30.6161 7.90049 27.5662C4.85064 24.5157 3.17114 20.4612 3.17114 16.1478C3.17114 11.8344 4.85064 7.77921 7.90049 4.72935C10.951 1.67949 15.0055 0 19.3189 0C23.6323 0 27.6875 1.67949 30.7374 4.72935C33.7872 7.77921 35.4667 11.8344 35.4667 16.1478C35.4667 20.4612 33.7872 24.5164 30.7374 27.5662C27.6875 30.6161 23.6323 32.2956 19.3189 32.2956ZM19.3189 1.84537C11.4329 1.84537 5.01651 8.26113 5.01651 16.1478C5.01651 24.0338 11.4323 30.4502 19.3189 30.4502C27.2056 30.4502 33.6213 24.0338 33.6213 16.1478C33.6213 8.26113 27.2056 1.84537 19.3189 1.84537Z" fill="#1ED1A8"/>
<path d="M19.3188 26.4522C16.9525 26.4522 14.7276 25.6385 13.0544 24.1613C11.3812 22.6842 10.4595 20.7194 10.4595 18.6302H12.3048C12.3048 20.1828 13.0048 21.6562 14.2759 22.7784C15.5922 23.9408 17.4307 24.6074 19.3188 24.6074C21.2069 24.6074 23.0453 23.9408 24.3616 22.7784C25.6327 21.6562 26.3327 20.1828 26.3327 18.6302H28.178C28.178 20.7194 27.2563 22.6842 25.5831 24.1613C23.9099 25.6385 21.685 26.4522 19.3188 26.4522Z" fill="#1ED1A8"/>
<path d="M16.6687 14.2628H15.0979C15.0979 13.4988 14.8503 12.7649 14.4187 12.2485C14.0549 11.813 13.5968 11.573 13.13 11.573C12.6632 11.573 12.2057 11.813 11.8413 12.2485C11.4097 12.7649 11.1621 13.4994 11.1621 14.2628H9.59131C9.59131 13.1369 9.97207 12.0355 10.6362 11.2406C11.3041 10.442 12.1894 10.0016 13.13 10.0016C14.0706 10.0016 14.9559 10.4414 15.6238 11.2406C16.2879 12.0355 16.6687 13.1369 16.6687 14.2628Z" fill="#1ED1A8"/>
<path d="M28.9402 14.2628H27.3694C27.3694 13.4988 27.1218 12.7649 26.6902 12.2485C26.3264 11.813 25.869 11.573 25.4015 11.573C24.9346 11.573 24.4772 11.813 24.1128 12.2485C23.6811 12.7649 23.4336 13.4994 23.4336 14.2628H21.8628C21.8628 13.1369 22.2436 12.0355 22.9071 11.2406C23.575 10.4414 24.4603 10.0016 25.4009 10.0016C26.3414 10.0016 27.2267 10.4414 27.8946 11.2406C28.5594 12.0355 28.9402 13.1369 28.9402 14.2628Z" fill="#1ED1A8"/>
</svg>
