<svg width="27" height="20" viewBox="0 0 27 20" fill="none" xmlns="http://www.w3.org/2000/svg">
<path d="M12.3161 5.86023C12.1472 8.23833 12.8385 10.2584 14.4801 11.9027C16.1096 13.5348 18.1111 14.2316 20.4241 14.0686C20.4241 14.5285 20.4241 14.9513 20.4241 15.3961C13.6298 15.3961 6.83766 15.3961 0.0178101 15.3961C0.0114225 15.2872 0.000776442 15.184 0.000776442 15.0808C6.67068e-05 12.5191 6.67068e-05 9.95803 0.000776442 7.39699C0.000776442 6.32503 0.460685 5.86308 1.53664 5.86236C5.00086 5.86023 8.46508 5.86094 11.9293 5.86094C12.0443 5.86023 12.16 5.86023 12.3161 5.86023ZM2.09521 9.27257C4.3841 9.27257 6.62545 9.27257 8.88241 9.27257C8.88241 8.93874 8.88241 8.62626 8.88241 8.31023C6.60557 8.31023 4.35358 8.31023 2.09521 8.31023C2.09521 8.6405 2.09521 8.94444 2.09521 9.27257Z" fill="#1ED1A8"/>
<path d="M26.3375 6.61756C26.3446 10.2627 23.3956 13.233 19.7589 13.2444C16.1095 13.2558 13.147 10.2961 13.1321 6.62538C13.1172 2.99594 16.091 0.00284924 19.7156 2.05944e-06C23.3786 -0.00284512 26.3304 2.94683 26.3375 6.61756ZM19.7533 1.51755C16.9285 1.51541 14.6474 3.79173 14.6474 6.61471C14.6474 9.4448 16.9186 11.7254 19.7391 11.7275C22.5375 11.7304 24.8193 9.45192 24.8279 6.64674C24.8364 3.81593 22.5652 1.52039 19.7533 1.51755Z" fill="#1ED1A8"/>
<path d="M0 17.7742C6.82908 17.7742 13.6141 17.7742 20.4134 17.7742C20.4134 18.1828 20.4496 18.5857 20.4042 18.9786C20.346 19.4797 19.9138 19.884 19.4169 19.9673C19.2551 19.9943 19.0869 19.9979 18.9223 19.9979C13.1024 20 7.2826 20 1.46347 20C0.504622 20 0.00283894 19.4932 0.000709735 18.5266C0 18.2803 0 18.034 0 17.7742Z" fill="#1ED1A8"/>
<path d="M20.4077 10.6193C20.0734 10.6193 19.7931 10.6193 19.4673 10.6193C19.4673 10.316 19.4673 10.0271 19.4673 9.76583C18.8846 9.62062 18.3516 9.4868 17.7803 9.34444C17.8874 8.91665 17.9783 8.55506 18.0656 8.207C18.5106 8.32587 18.9308 8.47036 19.3637 8.54083C19.6341 8.58496 19.9407 8.5693 20.1976 8.48175C20.3758 8.42053 20.5887 8.20628 20.6178 8.03189C20.6476 7.85679 20.517 7.58916 20.3701 7.46602C20.16 7.2902 19.8726 7.20764 19.6164 7.08877C19.2956 6.94071 18.9577 6.82184 18.654 6.64532C18.084 6.31433 17.7973 5.81038 17.8598 5.1356C17.9236 4.45299 18.2955 3.94548 18.9201 3.75401C19.4595 3.58887 19.5887 3.30344 19.5085 2.81444C19.4993 2.76034 19.5177 2.70127 19.5248 2.62866C19.8335 2.62866 20.1231 2.62866 20.4546 2.62866C20.4546 2.90484 20.4546 3.17105 20.4546 3.42374C20.9492 3.53762 21.4028 3.64155 21.884 3.75187C21.7811 4.16187 21.6959 4.50353 21.6178 4.81601C21.1409 4.73273 20.6873 4.62026 20.2267 4.58183C19.7214 4.53983 19.4183 4.7192 19.3495 5.01104C19.2828 5.29433 19.4574 5.51712 19.9485 5.73992C20.3247 5.91003 20.7136 6.05239 21.0884 6.22536C21.8016 6.55421 22.1955 7.09944 22.1494 7.90804C22.1061 8.67251 21.6434 9.27326 20.8477 9.50033C20.4773 9.60638 20.3488 9.77152 20.4035 10.1345C20.4269 10.2826 20.4077 10.4378 20.4077 10.6193Z" fill="#1ED1A8"/>
</svg>
