<svg width="30" height="24" viewBox="0 0 30 24" fill="none" xmlns="http://www.w3.org/2000/svg">
<path d="M17.0861 12.4437C22.3258 14.3221 24.4832 18.4094 24.5968 22.3898C17.3954 22.3898 10.1946 22.3898 2.97534 22.3898C3.14619 19.4644 4.1786 16.9049 6.16388 14.7567C8.14567 12.6123 10.6085 11.3683 13.5098 10.9713C13.2686 10.1463 13.4592 9.45814 14.196 8.99936C14.7849 8.63253 15.5001 8.70984 16.0066 9.12662C16.5488 9.57299 16.7209 10.2144 16.4909 10.9633C20.1401 11.5004 23.0219 13.2776 25.0721 16.3484C26.2859 18.166 26.9085 20.1898 27.0154 22.3879C26.5541 22.3879 26.0969 22.3879 25.626 22.3879C25.4135 19.1622 24.0728 16.5078 21.5361 14.4828C20.225 13.4363 18.7303 12.7698 17.0861 12.4437Z" fill="#1ED1A8"/>
<path d="M14.9907 23.9968C11.5072 23.9968 8.02376 23.9968 4.54028 23.9968C3.45347 23.9968 2.36665 23.9898 1.27984 24C0.837285 24.0041 0.569399 23.6156 0.71575 23.2278C0.801016 23.0022 1.00972 22.8791 1.2862 22.8791C2.42074 22.8788 3.55528 22.8791 4.68982 22.8788C7.37281 22.8785 10.0558 22.8778 12.7388 22.8785C15.9464 22.8791 19.1541 22.881 22.362 22.8813C24.4774 22.8816 26.5928 22.8794 28.7082 22.8791C29.1801 22.8791 29.4623 23.3013 29.2558 23.7015C29.1479 23.9109 28.9647 23.9974 28.7337 23.9971C28.246 23.9961 27.7582 23.9971 27.2702 23.9971C24.1844 23.9974 21.0986 23.998 18.0128 23.9984C17.0056 23.9984 15.998 23.9984 14.9907 23.9984C14.9907 23.9977 14.9907 23.9974 14.9907 23.9968Z" fill="#1ED1A8"/>
<path d="M12.4141 0.00708008C12.1647 0.298828 11.8971 0.578485 11.669 0.886777C11.3037 1.38023 11.2182 1.94178 11.3206 2.54404C11.4294 3.18449 11.7282 3.74094 12.0511 4.28912C12.3492 4.79498 12.6559 5.29608 12.9432 5.80831C13.2489 6.35362 13.2906 6.92757 13.0243 7.4977C12.9372 7.68446 12.772 7.83463 12.6425 8.00166C12.6279 7.99084 12.6133 7.98003 12.5986 7.96953C12.6034 7.95776 12.6056 7.94376 12.6136 7.93485C12.9486 7.55624 13.0024 7.11624 12.8016 6.67718C12.5916 6.21809 12.3209 5.78603 12.0724 5.34475C11.7508 4.77399 11.3976 4.21881 11.1081 3.63213C10.8399 3.08904 10.7358 2.4995 10.8482 1.88833C10.9783 1.17916 11.4176 0.686976 11.9779 0.281965C12.1204 0.178565 12.2767 0.0929817 12.4141 0.00708008Z" fill="#1ED1A8"/>
<path d="M15.4283 0.013916C15.1865 0.296437 14.9084 0.580867 14.6781 0.899976C14.2508 1.49174 14.2282 2.15159 14.4038 2.84072C14.5514 3.41976 14.8591 3.91799 15.1528 4.42481C15.4311 4.90554 15.7366 5.37195 15.9898 5.86509C16.3045 6.47786 16.322 7.10367 15.9217 7.69861C15.847 7.80965 15.7439 7.90128 15.6535 8.00182C15.6405 7.99004 15.6274 7.97795 15.6141 7.96618C15.6698 7.88792 15.7312 7.81347 15.7795 7.73107C15.971 7.40655 15.9656 7.06358 15.8473 6.72061C15.6558 6.16447 15.3106 5.6917 15.0004 5.20079C14.6189 4.59725 14.2266 3.9988 13.9994 3.31445C13.7869 2.674 13.7297 2.02815 14.0211 1.3963C14.3192 0.749489 14.8457 0.328889 15.4283 0.013916Z" fill="#1ED1A8"/>
<path d="M18.6418 7.9459C18.7194 7.78301 18.8174 7.62648 18.8708 7.45595C18.9787 7.1117 18.8874 6.77701 18.7254 6.47667C18.4725 6.00707 18.1922 5.55179 17.9126 5.09715C17.5467 4.50284 17.1659 3.9168 16.9575 3.24199C16.7834 2.67822 16.7306 2.10968 16.9412 1.54528C17.2094 0.827201 17.7611 0.377331 18.4321 0C18.1995 0.258659 17.9813 0.484231 17.7828 0.725392C17.2836 1.33179 17.1913 2.01933 17.3682 2.77112C17.519 3.41316 17.8648 3.95689 18.1849 4.51493C18.4426 4.96448 18.7321 5.39749 18.9676 5.85849C19.2803 6.47094 19.307 7.09611 18.9065 7.69265C18.839 7.79319 18.7401 7.87241 18.6558 7.96181C18.651 7.95672 18.6465 7.95131 18.6418 7.9459Z" fill="#1ED1A8"/>
</svg>
