<svg width="54" height="54" viewBox="0 0 54 54" fill="none" xmlns="http://www.w3.org/2000/svg">
<rect width="54" height="54" rx="10" fill="white" fill-opacity="0.1"/>
<path d="M42.4862 25.6726C42.9676 25.6726 43.403 25.6704 43.8384 25.6726C45.2642 25.6837 46.4234 26.8477 46.4245 28.2921C46.4245 28.9553 46.4651 29.6363 46.3412 30.2795C46.0988 31.528 45.0503 32.3292 43.8055 32.3359C43.2988 32.3392 42.711 32.1768 42.3107 32.386C41.9499 32.5751 41.8051 33.176 41.5463 33.5833C41.3839 33.8381 41.1964 34.0796 41.0001 34.3099C40.8136 34.5292 40.602 34.725 40.3541 34.9787C40.5307 34.9887 40.6568 35.001 40.784 35.001C42.3984 35.0021 44.0128 35.001 45.6283 35.0021C46.2172 35.0032 46.4377 35.2369 46.4278 35.8389C46.4004 37.4669 44.956 38.9502 43.3493 38.9958C43.1168 39.0025 42.8843 38.9992 42.6518 38.9992C31.8972 38.9992 21.1415 38.9992 10.387 38.9992C8.69144 38.9992 7.3973 37.9331 7.05951 36.2584C7.02441 36.0837 7.01564 35.9001 7.01673 35.7209C7.01893 35.2514 7.25692 35.0077 7.72522 35.0032C8.35036 34.9965 8.97659 35.001 9.62147 35.001C9.62147 30.9672 9.62147 26.9746 9.62147 22.9419C8.56971 22.6192 7.83819 21.8981 7.38743 20.8743C6.64494 19.1941 6.9937 17.1109 8.22753 15.8969C8.81976 15.3138 9.52277 15.0045 10.3651 15.0056C17.042 15.0111 23.72 15.0201 30.3969 15C31.8566 14.9956 32.836 15.6866 33.4743 16.9463C34.3572 18.6877 34.0227 20.8999 32.6682 22.1607C32.2953 22.5079 31.8139 22.7349 31.3291 23.052C31.3291 23.3959 31.3291 23.8388 31.3291 24.3406C31.4958 24.3406 31.6537 24.3406 31.8117 24.3406C35.0273 24.3406 38.2429 24.3406 41.4585 24.3406C42.3469 24.3406 42.4785 24.4719 42.4862 25.3644C42.4873 25.4456 42.4862 25.528 42.4862 25.6726ZM30.0053 24.3395C30.0053 23.6685 30.0021 23.0465 30.0064 22.4255C30.0097 21.9359 30.2038 21.7178 30.6853 21.6733C31.3203 21.6143 31.7952 21.2927 32.1264 20.7608C32.6342 19.9452 32.7538 19.0583 32.5048 18.128C32.1681 16.8706 31.4783 16.3409 30.1995 16.3409C25.1775 16.3409 20.1556 16.3454 15.1336 16.3365C14.3605 16.3353 13.7759 16.6491 13.3986 17.3112C12.7406 18.4663 12.7614 19.6358 13.4425 20.7753C13.7397 21.2716 14.1883 21.5787 14.7673 21.6633C15.4287 21.7601 15.5515 21.9003 15.5515 22.5691C15.5515 26.5395 15.5515 30.5098 15.5515 34.4802C15.5515 34.6427 15.5515 34.8051 15.5515 34.9643C20.3947 34.9643 25.1951 34.9643 30.104 34.9643C29.9384 34.7818 29.8441 34.6727 29.7443 34.5692C28.7298 33.5188 28.1036 32.2613 28.0554 30.7947C27.9917 28.8807 28.0345 26.9634 28.0378 25.0483C28.0389 24.581 28.2846 24.3484 28.7584 24.3417C29.1521 24.3351 29.548 24.3395 30.0053 24.3395ZM29.3725 25.6793C29.3725 27.393 29.2683 29.0766 29.3988 30.7424C29.5666 32.8923 30.9518 34.4524 32.9753 34.8585C33.8878 35.0422 34.8518 34.9854 35.7928 34.9943C36.3774 34.9999 36.9795 34.9976 37.5454 34.8697C39.729 34.3756 41.1481 32.5429 41.1701 30.2439C41.1832 28.8284 41.1734 27.4119 41.1712 25.9964C41.1712 25.8918 41.1514 25.7872 41.1405 25.6793C37.2087 25.6793 33.3098 25.6793 29.3725 25.6793ZM14.2267 22.9463C12.8557 22.5012 12.0814 21.5064 11.7426 20.1421C11.4102 18.8035 11.6428 17.5416 12.4236 16.342C11.7228 16.342 11.0944 16.3487 10.4671 16.3398C9.77831 16.3298 9.25955 16.6358 8.87131 17.1922C8.15076 18.2237 8.15405 19.8016 8.87789 20.8321C9.20142 21.2939 9.62915 21.591 10.1929 21.6655C10.8125 21.7479 10.954 21.9114 10.954 22.5502C10.954 26.5328 10.954 30.5143 10.954 34.4969C10.954 34.6571 10.954 34.8185 10.954 34.9698C12.0814 34.9698 13.153 34.9698 14.2288 34.9698C14.2267 30.9427 14.2267 26.949 14.2267 22.9463ZM44.9374 36.3563C32.7757 36.3563 20.6447 36.3563 8.51377 36.3563C8.50829 36.4042 8.49623 36.4331 8.5039 36.4565C8.52145 36.5088 8.54339 36.56 8.5708 36.6067C9.01279 37.3879 9.70373 37.6716 10.5625 37.6716C21.3313 37.6672 32.1012 37.6694 42.87 37.6683C42.9797 37.6683 43.0894 37.6705 43.1979 37.6627C44.0479 37.5982 44.6983 37.1164 44.9374 36.3563ZM42.4971 31.0039C42.8755 31.0039 43.2407 31.005 43.6048 31.0028C43.7277 31.0017 43.8516 31.0039 43.9722 30.9828C44.6248 30.8659 45.0733 30.3741 45.1062 29.702C45.1304 29.2324 45.1304 28.7594 45.1052 28.2899C45.0712 27.6578 44.684 27.1548 44.0742 27.0658C43.561 26.9912 43.0279 27.0502 42.4971 27.0502C42.4971 28.3633 42.4971 29.6608 42.4971 31.0039Z" fill="#1ED1A8"/>
<path d="M35.6721 22.2241C35.7664 21.9526 35.83 21.6666 35.9617 21.4151C36.1042 21.1436 36.1306 20.9055 35.9792 20.6362C35.6195 19.9941 35.6272 19.3498 35.977 18.7011C36.0527 18.5609 36.0713 18.3895 36.1119 18.2315C36.2095 17.8487 36.5001 17.6339 36.8632 17.6784C37.2097 17.7218 37.4729 18.0301 37.4247 18.4173C37.3885 18.7122 37.2997 19.0115 37.1757 19.2819C37.0485 19.5579 37.0266 19.7905 37.1779 20.062C37.5289 20.6885 37.5135 21.3239 37.1823 21.9615C37.1088 22.1028 37.0814 22.2709 37.0419 22.4289C36.9432 22.8317 36.6372 23.0587 36.2644 22.9997C35.9233 22.9463 35.6973 22.6336 35.6721 22.2241Z" fill="#1ED1A8"/>
<path d="M41.4234 18.4352C41.3247 18.7189 41.2512 19.0149 41.1185 19.282C40.9825 19.5557 40.9661 19.7894 41.1185 20.0609C41.4695 20.6874 41.4552 21.3228 41.124 21.9604C41.0505 22.1017 41.0231 22.2698 40.9836 22.4278C40.8849 22.8306 40.5789 23.0587 40.206 22.9998C39.865 22.9463 39.6138 22.6303 39.6643 22.2408C39.7005 21.9593 39.7794 21.67 39.9044 21.4163C40.0393 21.1425 40.0722 20.9066 39.9209 20.6362C39.5612 19.9942 39.5688 19.351 39.9176 18.7011C39.9933 18.5609 40.0119 18.3895 40.0525 18.2315C40.1501 17.8487 40.4397 17.6329 40.8027 17.6785C41.1492 17.7208 41.385 18.0257 41.4234 18.4352Z" fill="#1ED1A8"/>
<path d="M26.815 22.2719C26.6746 22.5234 26.6099 22.7282 26.4761 22.8651C24.3287 25.0572 22.1736 27.2427 20.0164 29.4248C19.7005 29.7442 19.3101 29.7576 19.0337 29.4872C18.7474 29.2067 18.7606 28.7961 19.0907 28.4612C21.2326 26.2824 23.38 24.1091 25.522 21.9314C25.7457 21.7044 26.0155 21.5742 26.293 21.7256C26.4937 21.8346 26.6297 22.0694 26.815 22.2719Z" fill="#1ED1A8"/>
<path d="M22.2174 21.6288C22.0693 21.8781 21.9958 22.0761 21.862 22.2152C21.0406 23.0676 20.2071 23.9089 19.3725 24.7468C19.0401 25.0806 18.6365 25.0951 18.3602 24.8058C18.0948 24.5265 18.109 24.1292 18.4205 23.8098C19.2562 22.953 20.1007 22.104 20.9397 21.2493C21.1645 21.0212 21.4387 20.9044 21.7129 21.0691C21.9103 21.187 22.0386 21.4229 22.2174 21.6288Z" fill="#1ED1A8"/>
<path d="M26.1054 26.9356C26.2809 27.0736 26.5496 27.1815 26.6209 27.3674C26.6999 27.5732 26.6911 27.9404 26.5595 28.0829C25.681 29.0321 24.7663 29.9479 23.8451 30.8548C23.5906 31.1052 23.1936 31.0517 22.9578 30.8025C22.7209 30.5521 22.688 30.1626 22.9403 29.9C23.8275 28.9775 24.729 28.0695 25.6349 27.1671C25.7337 27.0691 25.8949 27.0357 26.1054 26.9356Z" fill="#1ED1A8"/>
</svg>
