<svg width="40" height="40" viewBox="0 0 40 40" fill="none" xmlns="http://www.w3.org/2000/svg">
<rect width="40" height="40" rx="20" fill="white" fill-opacity="0.1"/>
<path d="M16.1519 19.1438C15.2026 17.4478 15.1645 15.8134 15.7164 14.1132C15.8475 13.7107 15.7671 13.237 15.7692 12.7952C15.7745 11.9276 15.7735 11.061 15.7692 10.1933C15.7671 9.79722 15.8644 9.46163 16.3295 9.46057C16.8021 9.45951 16.8909 9.82165 16.894 10.1997C16.9025 11.2968 16.931 12.3959 16.8845 13.4908C16.8613 14.0516 17.0685 14.3479 17.6298 14.4965C17.6573 14.2172 17.67 13.9454 17.7144 13.6777C17.8825 12.672 18.3761 11.8288 18.9956 11.0376C19.1627 10.8242 19.2768 10.5109 19.2853 10.239C19.3181 9.14304 19.299 8.04494 19.3001 6.9479C19.3001 6.82471 19.2948 6.70046 19.3107 6.57833C19.3551 6.24699 19.5115 5.98574 19.8762 6.0006C20.2579 6.01653 20.4238 6.28097 20.4249 6.64948C20.4281 7.83573 20.4101 9.02091 20.4407 10.2061C20.4481 10.4769 20.556 10.7902 20.7209 11.0036C21.5074 12.021 22.0624 13.1191 22.0592 14.4402C22.943 14.3256 23.0561 14.2024 23.0572 13.374C23.0582 12.3301 23.0551 11.2861 23.0593 10.2411C23.0614 9.70483 23.2781 9.42977 23.6883 9.4542C24.1598 9.48287 24.3025 9.80359 24.3057 10.221C24.3088 10.7339 24.2835 11.249 24.312 11.7608C24.3765 12.9397 24.4061 14.1248 24.5615 15.292C24.738 16.6173 24.6408 17.862 23.8405 19.1258C24.4336 19.1258 24.9304 19.1289 25.4262 19.1247C25.8723 19.1215 26.0277 19.3127 25.996 19.7789C25.9009 21.1648 25.7 22.5135 24.8755 23.6498C24.9347 23.7199 24.9431 23.7422 24.9558 23.7444C26.0129 23.9228 26.0066 23.9228 25.9379 25.0325C25.8026 27.2022 24.9051 28.8961 22.9419 29.9389C22.2421 30.3106 21.5169 30.54 20.6585 30.4073C20.6585 31.601 20.6585 32.7755 20.6585 34C20.2314 34 19.8583 34 19.4269 34C19.4269 32.8169 19.4269 31.6392 19.4269 30.4434C18.9417 30.3903 18.4935 30.4073 18.0865 30.2862C15.9606 29.6501 14.6296 28.2493 14.2036 26.0404C14.1 25.5041 14.0852 24.9518 14.0144 24.4092C13.9594 23.9822 14.1169 23.7773 14.5577 23.7921C14.7269 23.7975 14.8971 23.7592 15.0039 23.7475C14.711 22.8629 14.3886 22.0144 14.1581 21.1414C14.0292 20.654 14.0588 20.1251 14.0049 19.6164C13.97 19.2957 14.1243 19.1502 14.4182 19.1438C14.9616 19.1364 15.5049 19.1438 16.1519 19.1438ZM24.7095 24.7479C23.8416 25.057 23.0054 25.2439 22.2833 25.6421C21.4049 26.1264 20.7558 26.9133 20.5243 27.9222C20.445 28.2695 20.5211 28.7814 20.7399 29.0267C20.9017 29.2094 21.4408 29.1828 21.7548 29.0777C23.5699 28.4713 24.6661 26.8985 24.7095 24.7479ZM15.3379 20.2058C15.2301 22.077 16.4648 23.8601 18.1658 24.4644C19.114 24.801 19.558 24.4708 19.4766 23.465C19.4576 23.2261 19.3931 22.9712 19.2789 22.762C18.8318 21.9422 18.2429 21.2189 17.3877 20.8313C16.7524 20.5435 16.0451 20.415 15.3379 20.2058ZM15.2808 25.0272C15.3073 25.2534 15.3263 25.4446 15.3538 25.6336C15.6656 27.7481 17.1139 28.8674 18.558 29.2306C19.2092 29.3941 19.5379 29.0734 19.4756 28.4129C19.299 26.5427 17.2239 24.8382 15.2808 25.0272ZM24.6873 20.3354C23.6946 20.4734 22.7411 20.6996 21.9546 21.3411C21.3203 21.8583 20.7547 22.4774 20.6511 23.3323C20.6088 23.6796 20.6881 24.1734 20.9133 24.3805C21.1046 24.5578 21.6184 24.5164 21.9303 24.4049C23.5604 23.8251 24.6397 22.214 24.6873 20.3354ZM23.2971 15.4003C23.184 15.4332 23.0677 15.4544 22.961 15.5012C21.6269 16.0863 20.7452 17.5614 20.8181 19.078C20.853 19.7959 21.1511 19.9445 21.7622 19.5505C23.054 18.7158 23.7073 16.9742 23.2971 15.4003ZM16.6932 15.3737C16.3528 17.1175 16.968 18.7307 18.2398 19.5505C18.8476 19.9424 19.1627 19.7884 19.187 19.0695C19.2166 18.1731 18.9333 17.3586 18.4544 16.6205C18.0474 15.9929 17.4427 15.618 16.6932 15.3737ZM20.0031 16.8966C21.2389 15.566 21.1554 13.2317 19.8551 11.9987C18.6383 13.2752 18.6986 15.704 20.0031 16.8966ZM19.9989 21.683C20.2061 21.4048 20.3784 21.1722 20.5697 20.9152C20.3678 20.758 20.1934 20.621 19.9999 20.4692C19.8139 20.6178 19.6415 20.7548 19.4407 20.9152C19.6267 21.1733 19.7969 21.4069 19.9989 21.683ZM20.4122 25.7982C20.4143 25.7377 20.4164 25.6761 20.4185 25.6156C20.1479 25.6156 19.8762 25.6156 19.484 25.6156C19.7071 25.9321 19.8403 26.1211 19.9978 26.3441C20.1638 26.1243 20.2875 25.9618 20.4122 25.7982Z" fill="#1ED1A8"/>
</svg>
