<svg width="16" height="14" viewBox="0 0 16 14" fill="none" xmlns="http://www.w3.org/2000/svg">
<path d="M9.69122 0.122902C9.605 0.0558304 9.50168 0.0143176 9.39302 0.00308977C9.28436 -0.00813804 9.17473 0.0113704 9.07662 0.0593939C8.97851 0.107417 8.89585 0.182026 8.83806 0.274724C8.78027 0.367422 8.74967 0.474485 8.74975 0.583722V2.90882C8.07955 2.93691 7.41821 3.0724 6.79097 3.31014C5.81845 3.67776 4.9707 4.31468 4.34687 5.14642C3.62006 6.11006 3.08574 7.44702 2.91892 9.28097C2.90787 9.40049 2.93396 9.52051 2.99364 9.62466C3.05331 9.7288 3.14367 9.81201 3.25237 9.86291C3.36107 9.91382 3.48283 9.92995 3.60104 9.90911C3.71925 9.88827 3.82815 9.83147 3.91289 9.74646C5.29885 8.35816 6.67664 7.67452 7.69511 7.33503C8.1151 7.19503 8.47442 7.11337 8.74975 7.0667V9.33347C8.74972 9.44591 8.78218 9.55596 8.84324 9.65038C8.9043 9.7448 8.99135 9.81956 9.0939 9.86566C9.19646 9.91176 9.31015 9.92724 9.4213 9.91023C9.53245 9.89322 9.63631 9.84445 9.72038 9.76979L14.9702 5.10326C15.0344 5.04641 15.0852 4.97612 15.119 4.89741C15.1529 4.8187 15.169 4.73349 15.1663 4.64784C15.1635 4.56219 15.1419 4.47821 15.1029 4.40186C15.064 4.32552 15.0087 4.25868 14.9411 4.20612L9.69122 0.122902ZM9.26657 4.08012H9.27007C9.35143 4.08859 9.43366 4.07993 9.51147 4.05469C9.58927 4.02944 9.66093 3.98818 9.72182 3.93356C9.78271 3.87893 9.83148 3.81216 9.86499 3.73754C9.8985 3.66292 9.91601 3.5821 9.91638 3.5003V1.77602L13.6718 4.69727L9.91638 8.03384V6.41689C9.91638 6.26218 9.85492 6.11381 9.74553 6.00442C9.63614 5.89503 9.48777 5.83357 9.33306 5.83357H9.28056C9.10254 5.84177 8.925 5.85851 8.74858 5.88373C8.39859 5.93507 7.9086 6.03306 7.32529 6.22789C6.25502 6.59141 5.25133 7.12734 4.35387 7.81451C4.5802 6.9792 4.90919 6.33989 5.27901 5.84874C5.77107 5.19181 6.44053 4.6891 7.20862 4.39978C7.81989 4.16891 8.46982 4.05762 9.12307 4.07195C9.17557 4.07312 9.21523 4.07545 9.23973 4.07779L9.2654 4.08012H9.26657ZM2.91658 1.16704C2.14306 1.16704 1.40121 1.47432 0.854247 2.02129C0.307282 2.56825 0 3.31009 0 4.08362V11.0834C0 11.8569 0.307282 12.5988 0.854247 13.1458C1.40121 13.6927 2.14306 14 2.91658 14H9.91638C10.6899 14 11.4317 13.6927 11.9787 13.1458C12.5257 12.5988 12.833 11.8569 12.833 11.0834V9.91678C12.833 9.76208 12.7715 9.61371 12.6621 9.50432C12.5527 9.39492 12.4044 9.33347 12.2496 9.33347C12.0949 9.33347 11.9466 9.39492 11.8372 9.50432C11.7278 9.61371 11.6663 9.76208 11.6663 9.91678V11.0834C11.6663 11.5475 11.482 11.9926 11.1538 12.3208C10.8256 12.649 10.3805 12.8334 9.91638 12.8334H2.91658C2.45247 12.8334 2.00736 12.649 1.67918 12.3208C1.351 11.9926 1.16663 11.5475 1.16663 11.0834V4.08362C1.16663 3.6195 1.351 3.1744 1.67918 2.84622C2.00736 2.51804 2.45247 2.33367 2.91658 2.33367H5.24985C5.40455 2.33367 5.55292 2.27221 5.66231 2.16282C5.77171 2.05343 5.83316 1.90506 5.83316 1.75035C5.83316 1.59565 5.77171 1.44728 5.66231 1.33789C5.55292 1.22849 5.40455 1.16704 5.24985 1.16704H2.91658Z" fill="#1ED1A8"/>
</svg>
