<svg width="31" height="15" viewBox="0 0 31 15" fill="none" xmlns="http://www.w3.org/2000/svg">
<path d="M9.44505 7.50092C9.44505 9.4691 9.44546 11.4373 9.44505 13.4059C9.44505 14.3525 8.81859 14.9883 7.86953 14.9969C7.606 14.9993 7.33513 15.0119 7.07974 14.9606C6.34208 14.8127 5.8704 14.2156 5.86959 13.4645C5.86755 11.7472 5.86877 10.0304 5.86877 8.31312C5.86877 6.07326 5.86877 3.83381 5.86877 1.59395C5.86877 0.639597 6.50908 -0.000712155 7.46466 0.00254642C7.70172 0.00336106 7.94326 -0.0129318 8.17421 0.0278003C8.95342 0.165475 9.44424 0.767089 9.44465 1.55607C9.44546 3.53687 9.44465 5.5189 9.44505 7.50092Z" fill="#1ED1A8"/>
<path d="M20.9975 7.4932C20.9975 5.50466 20.9959 3.51653 20.9983 1.52798C20.9991 0.648168 21.6496 0.000527429 22.5294 0.00215671C22.7999 0.00256404 23.0761 -0.0112849 23.34 0.0355571C24.0622 0.163456 24.5522 0.76344 24.5624 1.49947C24.5681 1.90638 24.5636 2.31371 24.5636 2.72103C24.5636 6.29731 24.5644 9.874 24.5632 13.4503C24.5628 14.2156 24.0895 14.8417 23.3469 14.9566C22.9396 15.0193 22.5017 15.0103 22.0965 14.9329C21.4386 14.8075 20.9963 14.1757 20.9959 13.4788C20.9951 11.4837 20.9955 9.48826 20.9955 7.4932C20.9967 7.4932 20.9971 7.4932 20.9975 7.4932Z" fill="#1ED1A8"/>
<path d="M5.62654 7.50865C5.62654 8.56076 5.60658 9.61328 5.63265 10.665C5.65342 11.4959 4.95527 12.2083 4.13045 12.1521C3.80581 12.1301 3.47955 12.1582 3.18098 11.9908C2.65635 11.6963 2.42092 11.2369 2.42051 10.6483C2.41888 8.54406 2.41114 6.43983 2.42418 4.33561C2.42907 3.56333 2.84087 3.02241 3.54268 2.89125C3.88646 2.8269 4.2669 2.83586 4.60823 2.91243C5.22573 3.05133 5.62328 3.62321 5.62572 4.27044C5.62898 5.34984 5.62654 6.42924 5.62654 7.50865Z" fill="#1ED1A8"/>
<path d="M24.809 7.50177C24.809 6.42236 24.8086 5.34296 24.809 4.26356C24.8094 3.49413 25.4041 2.86767 26.1707 2.8526C26.4591 2.8469 26.7617 2.84771 27.0346 2.92592C27.646 3.10107 28.0097 3.64973 28.0085 4.32059C28.0057 5.93602 27.9967 7.55105 27.9939 9.16649C27.993 9.66871 27.9967 10.1709 28.0097 10.6728C28.033 11.5562 27.2969 12.2128 26.5218 12.1452C26.2408 12.1208 25.9446 12.1269 25.6848 12.0361C25.1394 11.8454 24.8094 11.3184 24.809 10.74C24.8086 9.66057 24.809 8.58117 24.809 7.50177Z" fill="#1ED1A8"/>
<path d="M19.2259 6.30951C19.2259 7.06835 19.2259 7.81375 19.2259 8.57544C16.5575 8.57544 13.894 8.57544 11.2163 8.57544C11.2163 7.82597 11.2163 7.07609 11.2163 6.30951C13.8761 6.30951 16.5392 6.30951 19.2259 6.30951Z" fill="#1ED1A8"/>
<path d="M2.17932 7.51804C2.17932 7.99257 2.17403 8.4671 2.18217 8.94163C2.18543 9.12574 2.11904 9.19661 1.93289 9.19173C1.57364 9.18277 1.21438 9.19376 0.855122 9.18969C0.362263 9.18439 0.00789338 8.83451 0.00382016 8.34368C-0.00106769 7.78117 -0.00147501 7.21825 0.00382016 6.65574C0.00789338 6.19303 0.309311 5.84884 0.772435 5.81707C1.17731 5.78937 1.58545 5.80607 1.99196 5.80485C2.14511 5.80444 2.18217 5.89813 2.18136 6.03295C2.17851 6.52785 2.18014 7.02274 2.18014 7.51764C2.17973 7.51804 2.17932 7.51804 2.17932 7.51804Z" fill="#1ED1A8"/>
<path d="M30.3714 7.51884C30.3714 7.78319 30.3759 8.04754 30.3706 8.31189C30.3592 8.86218 30.0236 9.18763 29.4708 9.18886C29.125 9.18967 28.7792 9.18519 28.4338 9.19048C28.2965 9.19252 28.2448 9.14609 28.2456 9.0023C28.2509 7.99907 28.2509 6.99584 28.2456 5.99301C28.2448 5.85045 28.2908 5.79994 28.4309 5.80198C28.7902 5.80727 29.1495 5.79668 29.5087 5.80524C30.0301 5.81786 30.358 6.1539 30.3714 6.68546C30.3788 6.96325 30.3726 7.24104 30.3726 7.51925C30.3722 7.51884 30.3718 7.51884 30.3714 7.51884Z" fill="#1ED1A8"/>
<path d="M20.7425 5.24683C20.7425 6.76328 20.7425 8.25897 20.7425 9.76402C20.3221 9.76402 19.9169 9.76402 19.4937 9.76402C19.4937 8.26141 19.4937 6.76125 19.4937 5.24683C19.9071 5.24683 20.3173 5.24683 20.7425 5.24683Z" fill="#1ED1A8"/>
<path d="M9.69849 9.76198C9.69849 8.25001 9.69849 6.7531 9.69849 5.24561C10.1205 5.24561 10.5311 5.24561 10.9461 5.24561C10.9461 6.75595 10.9461 8.25327 10.9461 9.76198C10.5315 9.76198 10.127 9.76198 9.69849 9.76198Z" fill="#1ED1A8"/>
</svg>
