<svg width="24" height="21" viewBox="0 0 24 21" fill="none" xmlns="http://www.w3.org/2000/svg">
<path d="M11.9557 15.8666C11.4603 17.2074 10.9682 18.5482 10.4693 19.8858C10.303 20.3306 10.0519 20.6815 9.49194 20.7786C8.7114 20.9133 7.91049 20.2523 8.09035 19.5443C8.29397 18.733 8.57565 17.9373 8.83357 17.1353C9.06773 16.4117 9.31886 15.6912 9.55302 14.9676C9.58357 14.8767 9.57339 14.7734 9.57339 14.6762C9.57339 13.2979 9.58017 11.9227 9.5666 10.5443C9.56321 10.3626 9.49194 10.1559 9.38334 10.0055C8.29737 8.4768 7.20461 6.95435 6.09488 5.4413C5.78266 5.01213 5.88787 4.48899 6.27814 4.25404C6.71931 3.98777 7.2623 4.10367 7.57791 4.53597C8.55529 5.883 9.53266 7.23316 10.51 8.58331C10.6729 8.80886 10.9241 8.85898 11.1514 8.70862C11.4365 8.52379 11.4229 8.33584 11.1141 8.19487C10.2352 7.79076 9.76004 6.99194 9.89239 6.13361C10.0146 5.33479 10.751 4.64248 11.6469 4.48272C12.4953 4.33235 13.4625 4.77719 13.8596 5.50082C14.3109 6.3247 14.1616 7.24569 13.4591 7.82835C13.2725 7.98185 13.0553 8.11342 12.8313 8.21366C12.5904 8.32017 12.6073 8.44548 12.7363 8.60211C12.9467 8.85898 13.2996 8.84958 13.4931 8.58331C14.4704 7.23316 15.4444 5.883 16.4252 4.53597C16.6899 4.16946 17.1073 4.02536 17.4942 4.15066C18.0881 4.34489 18.2849 4.89623 17.9218 5.40997C17.0428 6.64422 16.1503 7.86908 15.2646 9.10019C15.2544 9.11586 15.2374 9.12839 15.2238 9.14405C14.5689 9.84576 14.3381 10.6414 14.4161 11.575C14.4976 12.5523 14.4229 13.5422 14.4365 14.5259C14.4399 14.7734 14.484 15.0302 14.5655 15.2652C15.0202 16.5496 15.5021 17.8277 15.9501 19.112C16.0994 19.5381 16.1299 19.9892 15.7872 20.3651C15.1288 21.0856 14.0666 20.8788 13.6797 19.9516C13.449 19.4002 13.2453 18.8364 13.0213 18.2819C12.6956 17.4768 12.363 16.6717 12.0338 15.8666C12.0066 15.8635 11.9795 15.8635 11.9557 15.8666Z" fill="#1ED1A8"/>
<path d="M1.1233 6.04281C1.1233 5.61364 1.1233 5.20327 1.1233 4.77097C0.743213 4.77097 0.383484 4.77097 0 4.77097C0 3.66516 0 2.57814 0 1.4692C0.363122 1.4692 0.722851 1.4692 1.11652 1.4692C1.11652 0.97111 1.11652 0.494953 1.11652 0C1.84955 0 2.54864 0 3.28507 0C3.28507 0.801949 3.28507 1.6133 3.28507 2.44031C9.10181 2.44031 14.8812 2.44031 20.6878 2.44031C20.6878 1.63209 20.6878 0.830143 20.6878 0.00313261C21.4208 0.00313261 22.1267 0.00313261 22.8563 0.00313261C22.8563 0.473025 22.8563 0.939784 22.8563 1.44413C23.2432 1.44413 23.6097 1.44413 24 1.44413C24 2.56248 24 3.64949 24 4.75531C23.6335 4.75531 23.2738 4.75531 22.8801 4.75531C22.8801 5.19387 22.8801 5.61051 22.8801 6.04594C22.1471 6.04594 21.448 6.04594 20.7115 6.04594C20.7115 5.244 20.7115 4.43265 20.7115 3.60251C14.8948 3.60251 9.11538 3.60251 3.30882 3.60251C3.30882 4.41385 3.30882 5.2158 3.30882 6.03968C2.58258 6.04281 1.8733 6.04281 1.1233 6.04281Z" fill="#1ED1A8"/>
</svg>
