<svg width="39" height="40" viewBox="0 0 39 40" fill="none" xmlns="http://www.w3.org/2000/svg">
<path d="M2.61387 37.5747C3.06625 37.7004 3.41183 38.0962 3.41183 38.624C3.41183 39.5225 2.74581 40 1.69024 40H6.10352e-05L0.465017 35.6018H2.05466C2.85891 35.6018 3.30502 36.0291 3.30502 36.6134C3.30502 37.0909 3.02227 37.4176 2.61387 37.5747ZM0.904839 39.2775H1.69652C2.26829 39.2775 2.6013 39.001 2.6013 38.5423C2.6013 38.1716 2.34369 37.9894 1.83475 37.9894H1.03679L0.904839 39.2775ZM1.94156 36.3244H1.21272L1.09962 37.3234H1.79705C2.22431 37.3234 2.48192 37.0846 2.48192 36.7328C2.48192 36.4626 2.29971 36.3244 1.94156 36.3244Z" fill="#1ED1A8"/>
<path d="M5.58593 38.1591L5.47283 39.2398H7.3892L7.30752 40H4.56805L5.03301 35.6018H7.71593L7.63425 36.3621H5.77443L5.66761 37.4176H7.08133L6.99965 38.1591H5.58593Z" fill="#1ED1A8"/>
<path d="M9.03529 35.6018H12.0701L11.9884 36.3621H10.8826L10.4993 40H9.67618L10.0595 36.3621H8.95361L9.03529 35.6018Z" fill="#1ED1A8"/>
<path d="M13.3017 35.6018H16.3365L16.2548 36.3621H15.149L14.7657 40H13.9426L14.3259 36.3621H13.22L13.3017 35.6018Z" fill="#1ED1A8"/>
<path d="M18.215 38.1591L18.1019 39.2398H20.0183L19.9366 40H17.1971L17.6621 35.6018H20.345L20.2633 36.3621H18.4035L18.2967 37.4176H19.7104L19.6287 38.1591H18.215Z" fill="#1ED1A8"/>
<path d="M23.7882 38.3727L24.693 40H23.8322L23.0154 38.5046H22.274L22.1169 40H21.2938L21.7588 35.6018H23.2542C23.7443 35.6018 24.1213 35.74 24.3914 36.0228C24.6616 36.2992 24.7684 36.6637 24.7182 37.1161C24.6616 37.6941 24.3223 38.1465 23.7882 38.3727ZM22.5002 36.3621L22.3494 37.7946H22.9777C23.4992 37.7946 23.8574 37.5496 23.9076 37.0407C23.9579 36.582 23.6814 36.3621 23.1599 36.3621H22.5002Z" fill="#1ED1A8"/>
<path d="M26.5779 39.6481H28.1864L28.1299 40H26.0753L26.8544 35.5703H27.3005L26.5779 39.6481Z" fill="#1ED1A8"/>
<path d="M30.681 35.5703L29.9019 40H29.4557L30.2349 35.5703H30.681Z" fill="#1ED1A8"/>
<path d="M34.7644 35.5703L34.7015 35.9285H32.7412L32.4459 37.6186H34.1423L34.0795 37.9642H32.383L32.0249 40H31.5788L32.3579 35.5703H34.7644Z" fill="#1ED1A8"/>
<path d="M36.5801 35.9285L36.2847 37.5998H38.0189L37.9498 37.9454H36.2219L35.9266 39.6355H37.843L37.7801 40H35.4177L36.1968 35.5703H38.5593L38.4964 35.9285H36.5801Z" fill="#1ED1A8"/>
<path d="M19.3189 32.2956C15.0055 32.2956 10.9503 30.6161 7.90043 27.5662C4.85058 24.5157 3.17108 20.4612 3.17108 16.1478C3.17108 11.8344 4.85058 7.77921 7.90043 4.72935C10.9509 1.67949 15.0055 0 19.3189 0C23.6323 0 27.6874 1.67949 30.7373 4.72935C33.7871 7.77921 35.4666 11.8344 35.4666 16.1478C35.4666 20.4612 33.7871 24.5164 30.7373 27.5662C27.6874 30.6161 23.6323 32.2956 19.3189 32.2956ZM19.3189 1.84537C11.4328 1.84537 5.01645 8.26113 5.01645 16.1478C5.01645 24.0338 11.4322 30.4502 19.3189 30.4502C27.2055 30.4502 33.6213 24.0338 33.6213 16.1478C33.6213 8.26113 27.2055 1.84537 19.3189 1.84537Z" fill="#1ED1A8"/>
<path d="M19.3189 26.4523C16.9526 26.4523 14.7278 25.6386 13.0545 24.1615C11.3813 22.6843 10.4596 20.7195 10.4596 18.6304H12.305C12.305 20.1829 13.0049 21.6564 14.276 22.7785C15.5923 23.9409 17.4308 24.6076 19.3189 24.6076C21.207 24.6076 23.0454 23.9409 24.3618 22.7785C25.6329 21.6564 26.3328 20.1829 26.3328 18.6304H28.1782C28.1782 20.7195 27.2564 22.6843 25.5832 24.1615C23.91 25.6386 21.6851 26.4523 19.3189 26.4523Z" fill="#1ED1A8"/>
<path d="M16.6686 14.2627H15.0978C15.0978 13.4987 14.8502 12.7648 14.4186 12.2483C14.0548 11.8129 13.5967 11.5729 13.1299 11.5729C12.663 11.5729 12.2056 11.8129 11.8412 12.2483C11.4095 12.7648 11.162 13.4993 11.162 14.2627H9.59119C9.59119 13.1368 9.97195 12.0353 10.6361 11.2405C11.304 10.4419 12.1893 10.0015 13.1299 10.0015C14.0705 10.0015 14.9558 10.4413 15.6237 11.2405C16.2878 12.0353 16.6686 13.1368 16.6686 14.2627Z" fill="#1ED1A8"/>
<path d="M28.9403 14.2627H27.3695C27.3695 13.4987 27.1219 12.7648 26.6903 12.2483C26.3265 11.8129 25.8691 11.5729 25.4016 11.5729C24.9348 11.5729 24.4773 11.8129 24.1129 12.2483C23.6813 12.7648 23.4337 13.4993 23.4337 14.2627H21.8629C21.8629 13.1368 22.2437 12.0353 22.9072 11.2405C23.5751 10.4413 24.4604 10.0015 25.401 10.0015C26.3416 10.0015 27.2269 10.4413 27.8948 11.2405C28.5595 12.0353 28.9403 13.1368 28.9403 14.2627Z" fill="#1ED1A8"/>
</svg>
