<svg width="128" height="130" viewBox="0 0 128 130" fill="none" xmlns="http://www.w3.org/2000/svg">
<g filter="url(#filter0_d_1_13093)">
<rect x="38" y="36" width="50" height="50" rx="5" fill="white" fill-opacity="0.1" shape-rendering="crispEdges"/>
<path d="M53.1109 53.1022C53.1109 52.2489 53.1084 51.4487 53.1115 50.6492C53.114 50.1404 53.3277 49.9388 53.8175 50.0159C55.9999 50.3585 58.1842 50.6928 60.3622 51.0651C61.6143 51.2794 62.4271 51.8849 63.2481 53.092C63.2721 53.08 63.3094 53.075 63.3214 53.0541C64.1013 51.7654 65.2801 51.1605 66.7426 50.9551C68.7013 50.6802 70.6511 50.3433 72.6035 50.0286C73.2121 49.9306 73.4277 50.1038 73.4289 50.7169C73.4296 51 73.4289 51.2832 73.4289 51.5947C73.5244 51.5657 73.5933 51.5499 73.6577 51.524C75.0684 50.9589 76.5303 51.9285 76.5316 53.4479C76.5373 58.6514 76.5341 63.855 76.5335 69.0585C76.5335 69.4965 76.3628 69.6716 75.9217 69.6741C75.1209 69.6792 74.3207 69.6786 73.5199 69.6735C73.1553 69.671 72.9303 69.4605 72.9416 69.1521C72.9524 68.8569 73.1755 68.661 73.5206 68.6591C74.1709 68.6553 74.8219 68.6578 75.4951 68.6578C75.4951 64.2203 75.4951 59.8144 75.4951 55.368C75.4281 55.4154 75.3762 55.442 75.3377 55.4805C74.7486 56.0677 74.1532 56.6498 73.58 57.2521C73.4814 57.3558 73.4346 57.5485 73.434 57.7002C73.4258 60.418 73.4277 63.1357 73.4277 65.8535C73.4277 66.3743 73.3272 66.5051 72.8159 66.5879C70.6556 66.9368 68.4915 67.2661 66.3343 67.632C65.2921 67.809 64.5615 68.4328 64.0445 69.4396C64.1867 69.3777 64.26 69.3512 64.3282 69.3151C65.1859 68.8708 66.0967 68.6515 67.0624 68.6553C67.6629 68.6578 68.2633 68.6559 68.8637 68.6559C69.3207 68.6559 69.5571 68.8228 69.5678 69.154C69.5786 69.4934 69.3365 69.6697 68.8574 69.6748C68.0996 69.683 67.3393 69.6583 66.584 69.7083C65.4842 69.7816 64.5387 70.2417 63.7316 70.9888C63.365 71.3288 63.1748 71.3294 62.8139 70.9938C61.869 70.114 60.7484 69.6779 59.4597 69.6767C56.5839 69.6741 53.7082 69.676 50.8324 69.676C50.1037 69.676 50.0019 69.5717 50.0019 68.8316C50.0013 63.8291 50.0006 58.8259 50 53.822C50 53.2614 50.1542 53.1028 50.706 53.1022C51.4935 53.1015 52.281 53.1022 53.1109 53.1022ZM54.1563 51.1125C54.1563 55.9691 54.1563 60.7833 54.1563 65.6045C54.2568 65.6278 54.337 65.6525 54.4186 65.6651C56.1946 65.9476 57.9681 66.2485 59.7479 66.5032C60.8647 66.6631 61.8703 67.0171 62.659 67.8589C62.6755 67.8766 62.7121 67.876 62.7602 67.8899C62.7602 67.802 62.7602 67.73 62.7602 67.6573C62.7595 63.4998 62.7614 59.3416 62.7576 55.1841C62.7564 53.6388 61.7091 52.35 60.1853 52.0757C58.6437 51.7989 57.0927 51.5739 55.5455 51.3274C55.0929 51.2547 54.6391 51.1871 54.1563 51.1125ZM63.7771 67.8779C64.5027 67.1833 65.3193 66.7522 66.2711 66.593C67.5162 66.385 68.7645 66.1967 70.0109 65.9988C70.7984 65.8737 71.5859 65.7473 72.3785 65.6203C72.3785 63.2286 72.3785 60.8667 72.3785 58.4523C72.2654 58.5598 72.1895 58.6287 72.1175 58.7007C71.5815 59.2354 71.0481 59.7733 70.5083 60.3048C70.4122 60.399 70.3054 60.4944 70.1853 60.5501C68.896 61.1448 67.6035 61.7313 66.3116 62.3204C66.0632 62.4335 65.8211 62.4658 65.6157 62.2439C65.4223 62.0347 65.4653 61.8078 65.5746 61.5702C66.0499 60.5387 66.5119 59.5009 66.9929 58.4719C67.1604 58.1142 67.3026 57.7116 67.5681 57.4379C69.0989 55.8585 70.6638 54.3112 72.2148 52.7507C72.2862 52.6787 72.3829 52.5858 72.3861 52.4992C72.4031 52.0504 72.3943 51.6011 72.3943 51.1245C72.2508 51.1365 72.1478 51.1384 72.0467 51.1549C70.239 51.4424 68.4327 51.742 66.6238 52.0176C64.8756 52.2843 63.7765 53.5421 63.7765 55.3168C63.7758 59.2228 63.7765 63.1294 63.7765 67.0354C63.7771 67.3173 63.7771 67.5973 63.7771 67.8779ZM62.4486 69.3518C61.9758 68.4334 61.2483 67.8115 60.2162 67.6352C58.1223 67.2768 56.0227 66.9538 53.9237 66.6252C53.1747 66.5083 53.1102 66.4476 53.1102 65.679C53.1102 61.9728 53.1096 58.2671 53.1096 54.5609C53.1096 54.4269 53.1096 54.2929 53.1096 54.1393C52.4062 54.1393 51.7375 54.1393 51.0467 54.1393C51.0467 58.9769 51.0467 63.8032 51.0467 68.6572C51.1775 68.6572 51.2912 68.6572 51.405 68.6572C54.1108 68.6566 56.8165 68.6521 59.5222 68.661C59.8882 68.6622 60.2649 68.6844 60.6169 68.7747C61.2306 68.9334 61.8285 69.1527 62.4486 69.3518ZM69.9976 59.2734C71.2421 58.0396 72.4708 56.8223 73.7032 55.6006C73.226 55.1304 72.7476 54.6589 72.2862 54.2044C71.0601 55.4306 69.8295 56.6611 68.6071 57.8835C69.0691 58.3455 69.5438 58.8195 69.9976 59.2734ZM74.4724 54.8535C74.7436 54.5906 75.0431 54.3409 75.2928 54.0483C75.629 53.6546 75.5779 53.0731 75.2163 52.7021C74.8567 52.333 74.2594 52.2597 73.8701 52.5826C73.5667 52.8342 73.3114 53.1432 73.0415 53.4194C73.5199 53.8985 73.9984 54.3782 74.4724 54.8535ZM67.027 60.868C67.7798 60.5241 68.4447 60.2208 69.071 59.9345C68.6925 59.5464 68.3328 59.1773 67.9681 58.8031C67.6692 59.4592 67.3696 60.1165 67.027 60.868Z" fill="#1ED1A8"/>
<path d="M71.7676 68.405C71.7574 68.6907 71.5122 68.9145 71.2259 68.8993C70.9516 68.8847 70.7373 68.6541 70.7418 68.3791C70.7462 68.0922 70.9883 67.8735 71.2828 67.8893C71.5653 67.9051 71.7777 68.1307 71.7676 68.405Z" fill="#1ED1A8"/>
</g>
<defs>
<filter id="filter0_d_1_13093" x="-2" y="0" width="130" height="130" filterUnits="userSpaceOnUse" color-interpolation-filters="sRGB">
<feFlood flood-opacity="0" result="BackgroundImageFix"/>
<feColorMatrix in="SourceAlpha" type="matrix" values="0 0 0 0 0 0 0 0 0 0 0 0 0 0 0 0 0 0 127 0" result="hardAlpha"/>
<feOffset dy="4"/>
<feGaussianBlur stdDeviation="20"/>
<feComposite in2="hardAlpha" operator="out"/>
<feColorMatrix type="matrix" values="0 0 0 0 0 0 0 0 0 0 0 0 0 0 0 0 0 0 0.02 0"/>
<feBlend mode="normal" in2="BackgroundImageFix" result="effect1_dropShadow_1_13093"/>
<feBlend mode="normal" in="SourceGraphic" in2="effect1_dropShadow_1_13093" result="shape"/>
</filter>
</defs>
</svg>
