<svg width="128" height="130" viewBox="0 0 128 130" fill="none" xmlns="http://www.w3.org/2000/svg">
<g filter="url(#filter0_d_1_13118)">
<rect x="38" y="36" width="50" height="50" rx="5" fill="white" fill-opacity="0.1" shape-rendering="crispEdges"/>
<path d="M55.396 55.9737C55.0581 56.5768 54.7694 57.2022 54.7688 57.9045C54.7688 58.5334 54.841 59.1622 54.8834 59.7911C54.8885 59.8656 54.9074 59.939 54.9229 60.0267C55.16 59.9545 55.3805 59.8725 55.6073 59.8209C56.1738 59.6914 56.7253 59.8083 57.2735 59.9476C57.4676 59.9969 57.6612 60.0474 57.8537 60.1024C58.1194 60.1781 58.3417 60.1162 58.5782 59.9643C59.7375 59.2184 60.9763 58.7088 62.3911 58.7764C62.4856 58.781 62.5801 58.7867 62.6912 58.7925C62.5457 59.1783 62.3796 59.5417 62.2702 59.9218C61.7582 61.6967 62.1259 63.3477 63.0577 64.887C63.4117 65.4712 63.8659 65.9946 64.2748 66.5455C64.3241 66.612 64.3779 66.6756 64.4467 66.7616C63.8997 67.1423 63.3075 67.3681 62.6883 67.5269C61.9987 67.7035 61.304 67.805 60.5972 67.6112C60.0697 67.4667 59.6229 67.1876 59.2123 66.8333C59.1355 66.7668 58.982 66.7117 58.8972 66.7433C56.8319 67.5046 54.806 67.2718 52.8077 66.4985C51.4474 65.9716 50.2475 65.1908 49.2308 64.1349C49.0584 63.956 48.9857 63.7714 49.0023 63.5203C49.193 60.6396 50.1667 58.0707 52.0253 55.8493C52.0683 55.7982 52.1066 55.7432 52.1513 55.6933C52.5356 55.2651 52.8066 54.7858 53.0105 54.2349C53.4142 53.1468 54.2636 52.5145 55.3714 52.2141C56.4258 51.928 57.4722 51.857 58.4442 52.456C59.3102 52.9898 59.6934 53.8502 59.832 54.8168C59.9007 55.2955 59.5685 55.7564 59.0141 55.9335C57.64 56.3721 56.6881 56.6519 55.396 55.9737Z" fill="#1ED1A8"/>
<path d="M69.4605 58.1263C69.8878 57.8236 70.291 57.4825 70.7429 57.228C72.0872 56.4701 73.4406 56.6082 74.6577 57.584C76.3502 58.9415 76.935 61.2449 76.14 63.4216C75.6062 64.8841 74.6589 66.0564 73.5494 67.1136C72.4039 68.2051 71.1192 69.1131 69.7658 69.9238C69.6289 70.0057 69.3672 70.0304 69.24 69.9536C67.0292 68.6167 64.9604 67.1095 63.5325 64.8915C62.753 63.6813 62.3068 62.3628 62.4907 60.9032C62.7272 59.024 63.6637 57.6304 65.4639 56.9287C66.4902 56.5286 67.4771 56.7607 68.3855 57.33C68.7704 57.5708 69.1186 57.87 69.4605 58.1263Z" fill="#1ED1A8"/>
</g>
<defs>
<filter id="filter0_d_1_13118" x="-2" y="0" width="130" height="130" filterUnits="userSpaceOnUse" color-interpolation-filters="sRGB">
<feFlood flood-opacity="0" result="BackgroundImageFix"/>
<feColorMatrix in="SourceAlpha" type="matrix" values="0 0 0 0 0 0 0 0 0 0 0 0 0 0 0 0 0 0 127 0" result="hardAlpha"/>
<feOffset dy="4"/>
<feGaussianBlur stdDeviation="20"/>
<feComposite in2="hardAlpha" operator="out"/>
<feColorMatrix type="matrix" values="0 0 0 0 0 0 0 0 0 0 0 0 0 0 0 0 0 0 0.02 0"/>
<feBlend mode="normal" in2="BackgroundImageFix" result="effect1_dropShadow_1_13118"/>
<feBlend mode="normal" in="SourceGraphic" in2="effect1_dropShadow_1_13118" result="shape"/>
</filter>
</defs>
</svg>
