<svg width="29" height="24" viewBox="0 0 29 24" fill="none" xmlns="http://www.w3.org/2000/svg">
<path d="M19.586 11.8607C19.586 13.3211 19.6377 14.7375 19.5693 16.1477C19.5115 17.3255 18.6666 18.1157 17.4736 18.1203C12.3356 18.1431 7.19747 18.1446 2.05787 18.1142C0.799565 18.1066 0.0199621 17.2237 0.00780454 15.9563C-0.004353 14.7922 0.0169227 13.6281 0.000206075 12.464C-0.00739239 11.9792 0.194727 11.7786 0.67495 11.7786C6.87682 11.7862 13.0787 11.7862 19.279 11.7908C19.352 11.7908 19.4249 11.8227 19.586 11.8607ZM2.63079 14.6524C2.63231 14.6524 2.63383 14.6524 2.63535 14.6524C2.63535 14.4518 2.69766 14.2223 2.62016 14.0582C2.49858 13.7998 2.28279 13.5855 2.1065 13.3515C1.92262 13.581 1.63236 13.7892 1.58069 14.046C1.49406 14.4791 1.49862 14.9548 1.58373 15.3894C1.63084 15.628 1.91806 15.8195 2.09738 16.0322C2.27519 15.8225 2.51378 15.6386 2.61256 15.397C2.7007 15.1812 2.63079 14.9031 2.63079 14.6524Z" fill="#1ED1A8"/>
<path d="M4.05349 22.9757C3.48664 21.4515 3.97902 20.3983 5.11271 19.5473C5.48352 19.2692 5.79049 19.2753 6.12787 19.5595C7.04576 20.336 7.78737 21.0427 7.21445 22.9195C7.54118 22.9195 7.85272 22.9195 8.21745 22.9195C8.1521 22.5669 8.06851 22.2326 8.03052 21.8952C7.9211 20.9409 8.69919 19.6126 9.57149 19.3254C9.77209 19.2601 10.0775 19.33 10.2675 19.447C11.4422 20.1734 11.8252 21.2114 11.4681 22.573C11.4438 22.6672 11.4377 22.7675 11.4134 22.921C11.7766 22.921 12.1139 22.921 12.544 22.921C12 21.5229 12.3601 20.4242 13.4908 19.5412C13.9269 19.2008 14.2673 19.2023 14.6989 19.5473C15.7962 20.4226 16.1974 21.4849 15.6062 22.9757C16.2384 22.9757 16.7855 22.9195 17.3113 22.9985C17.5955 23.0411 18.0331 23.2781 18.0711 23.4879C18.1578 23.9574 17.7262 24 17.3493 24C12.3419 23.9985 7.33298 24.0061 2.32559 23.9787C2.07788 23.9772 1.83169 23.6854 1.58398 23.5289C1.83473 23.345 2.06573 23.0472 2.33927 23.0016C2.85293 22.9149 3.38938 22.9757 4.05349 22.9757ZM14.0956 20.4637C13.2203 21.1901 13.0668 21.8755 13.5987 22.5684C13.9209 22.9864 14.2491 22.9985 14.5789 22.5745C15.1153 21.8831 14.971 21.2053 14.0956 20.4637ZM9.8116 20.4637C8.95298 21.1992 8.80861 21.8071 9.29035 22.5137C9.63076 23.0122 10.0289 23.0076 10.3541 22.5046C10.8176 21.7904 10.6566 21.1582 9.8116 20.4637ZM5.58686 20.526C4.80421 21.2539 4.63401 21.7995 5.03065 22.4621C5.15526 22.6703 5.42273 22.8906 5.64309 22.9119C5.81329 22.9286 6.07468 22.6794 6.18865 22.4849C6.61417 21.7691 6.44092 21.2326 5.58686 20.526Z" fill="#1ED1A8"/>
<path d="M20.7271 14.8985C20.7271 13.8378 20.7271 12.8606 20.7271 11.7786C21.6525 11.7786 22.5522 11.7786 23.4519 11.7786C24.464 11.7786 25.4761 11.7756 26.4882 11.7816C26.7663 11.7832 27.049 11.7847 27.3195 11.8363C28.1811 12.002 28.7738 12.6281 28.7753 13.3408C28.7769 14.0566 28.1842 14.6782 27.3286 14.856C27.2055 14.8818 27.0778 14.897 26.9517 14.897C24.9032 14.9 22.8546 14.8985 20.7271 14.8985Z" fill="#1ED1A8"/>
<path d="M16.5026 2.90362C16.1881 3.66651 15.9616 4.50234 15.5255 5.20748C14.7839 6.40804 14.7368 7.5706 15.375 8.7894C15.5559 9.13437 15.8173 9.50821 15.3674 9.77568C14.8735 10.0705 14.6425 9.6465 14.4526 9.27874C13.6654 7.74689 13.6031 6.21959 14.6091 4.76373C15.4449 3.55253 15.4905 2.33374 14.8143 1.05872C14.6319 0.715265 14.4024 0.34446 14.8857 0.0845927C15.3735 -0.178314 15.5923 0.224404 15.7246 0.570894C16.0011 1.29123 16.2169 2.03436 16.5026 2.90362Z" fill="#1ED1A8"/>
<path d="M5.28235 2.86108C4.97993 3.63612 4.80365 4.45068 4.37661 5.09959C3.54382 6.36245 3.47999 7.58733 4.20489 8.87603C4.39789 9.21948 4.55594 9.59636 4.12738 9.76201C3.92678 9.83951 3.442 9.60852 3.31435 9.38664C2.44356 7.86695 2.34326 6.29559 3.36146 4.81085C4.23376 3.53886 4.28999 2.28815 3.54382 0.97514C3.34626 0.62865 3.22924 0.251766 3.67907 0.102836C3.87511 0.0374891 4.33102 0.259364 4.4222 0.461484C4.75502 1.20765 4.98449 2.00093 5.28235 2.86108Z" fill="#1ED1A8"/>
<path d="M10.8889 2.90368C10.5728 3.6696 10.3463 4.50544 9.91017 5.21209C9.16856 6.41417 9.12145 7.57825 9.7658 8.79553C9.94817 9.1405 10.2141 9.50675 9.75668 9.77725C9.25974 10.0706 9.02875 9.64656 8.84031 9.28031C8.05159 7.74694 7.99536 6.21661 8.99988 4.76226C9.84027 3.54803 9.88282 2.33075 9.202 1.05725C9.01811 0.710762 8.78864 0.346036 9.27342 0.0861681C9.76276 -0.175219 9.98464 0.229019 10.1169 0.57399C10.3934 1.29128 10.6062 2.03593 10.8889 2.90368Z" fill="#1ED1A8"/>
</svg>
