<svg width="31" height="30" viewBox="0 0 31 30" fill="none" xmlns="http://www.w3.org/2000/svg">
<path d="M15.9092 3.2205C12.8175 4.65623 10.5795 6.92003 9.25869 10.0637C8.26959 12.4173 8.01998 14.8643 8.49685 17.3742C9.06274 20.3522 10.4937 22.8413 12.7968 24.8023C15.0888 26.7543 17.7585 27.7574 20.7742 27.868C17.067 30.3975 10.7247 31.2047 5.53565 27.3179C0.142973 23.2776 -1.46121 15.9075 1.77399 10.0205C5.19985 3.78614 11.7357 2.35326 15.9092 3.2205Z" fill="#1ED1A8"/>
<path d="M12.9766 19.7012C12.9766 19.3437 12.9696 18.9972 12.9818 18.6519C12.9847 18.5735 13.0461 18.4915 13.0957 18.4221C14.3279 16.6913 15.5625 14.9622 16.7964 13.2326C16.8427 13.1677 16.8874 13.1016 16.9549 13.0053C15.7056 13.0053 14.4917 13.0053 13.2632 13.0053C13.2632 12.6266 13.2632 12.2699 13.2632 11.8981C15.0454 11.8981 16.8236 11.8981 18.629 11.8981C18.629 12.2544 18.6335 12.6119 18.6246 12.9694C18.6229 13.0277 18.5648 13.0877 18.5258 13.142C17.3066 14.8406 16.0861 16.5379 14.8665 18.236C14.8129 18.3107 14.7625 18.3874 14.6893 18.4948C16.0609 18.4948 17.3919 18.4948 18.7359 18.4948C18.7359 18.9045 18.7359 19.2951 18.7359 19.7016C16.8228 19.7012 14.9165 19.7012 12.9766 19.7012Z" fill="#1ED1A8"/>
<path d="M20.429 11.8724C20.429 11.5602 20.42 11.2679 20.4347 10.9766C20.4387 10.8917 20.4989 10.8023 20.5517 10.728C21.6413 9.19596 22.7336 7.66594 23.8252 6.13511C23.8638 6.08083 23.9 6.02492 23.9597 5.93677C22.8523 5.93677 21.7758 5.93677 20.6875 5.93677C20.6875 5.59396 20.6875 5.27849 20.6875 4.94873C22.2734 4.94873 23.8479 4.94873 25.4452 4.94873C25.4452 5.2744 25.4517 5.59232 25.4399 5.90943C25.4375 5.97432 25.372 6.03962 25.3289 6.09961C24.2484 7.60473 23.167 9.10944 22.0864 10.6141C22.0519 10.6619 22.0201 10.7117 21.9689 10.7876C23.1727 10.7876 24.3467 10.7876 25.535 10.7876C25.535 11.1565 25.535 11.5067 25.535 11.872C23.843 11.8724 22.1478 11.8724 20.429 11.8724Z" fill="#1ED1A8"/>
<path d="M27.4269 0.70685C27.4269 0.450964 27.4269 0.234256 27.4269 0C28.553 0 29.673 0 30.8206 0C30.8092 0.323633 30.891 0.637471 30.6535 0.954166C29.912 1.94139 29.2038 2.95391 28.4835 3.95705C28.4412 4.01582 28.4034 4.07745 28.3424 4.16927C29.2095 4.16927 30.0441 4.16927 30.8897 4.16927C30.8897 4.43455 30.8897 4.67615 30.8897 4.93163C29.6783 4.93163 28.4778 4.93163 27.2643 4.93163C27.2407 4.55575 27.2285 4.21784 27.4846 3.8791C28.2082 2.92086 28.8892 1.93037 29.5864 0.952533C29.6364 0.882338 29.6844 0.81051 29.7555 0.707258C28.9632 0.70685 28.2042 0.70685 27.4269 0.70685Z" fill="#1ED1A8"/>
</svg>
