<svg width="21" height="24" viewBox="0 0 21 24" fill="none" xmlns="http://www.w3.org/2000/svg">
<path d="M7.22338 23.9869C7.25485 23.8422 7.28003 23.7228 7.30664 23.6038C7.72207 21.7413 8.07827 19.8674 8.30859 17.9735C8.46996 16.6482 8.59785 15.3172 8.68797 13.9854C8.76779 12.8094 8.77295 11.6285 8.81615 10.4496C8.8213 10.3103 8.77609 10.2721 8.6379 10.2735C7.04971 10.2892 5.46181 10.3292 3.87963 10.4673C2.64107 10.5755 1.40622 10.7282 0.169948 10.861C0.132754 10.865 0.0955602 10.8687 0.0148776 10.8769C0.404844 9.35755 0.476371 7.84929 0 6.3062C2.84993 7.46965 5.77081 8.09105 8.81586 8.26432C8.80957 5.483 8.57467 2.74393 8.24107 0C9.54487 0 10.8381 0 12.1462 0C12.1135 0.277447 12.0792 0.540051 12.0526 0.803511C11.9673 1.64527 11.8718 2.48617 11.8048 3.32965C11.7276 4.30128 11.6678 5.27434 11.6169 6.24769C11.5862 6.8317 11.5834 7.41742 11.5754 8.00228C11.5717 8.26689 11.5224 8.26375 11.8409 8.24177C12.9018 8.16869 13.9567 8.04567 15.003 7.853C16.7325 7.53445 18.4208 7.07404 20.0519 6.41296C20.1254 6.38327 20.1984 6.3513 20.2968 6.32904C19.8542 7.84101 19.918 9.3487 20.3074 10.8807C20.0219 10.8415 19.783 10.8081 19.5438 10.7762C18.05 10.5778 16.5497 10.4445 15.0447 10.3769C13.9398 10.3272 12.8337 10.3092 11.7282 10.2738C11.6103 10.2701 11.5679 10.3092 11.5717 10.4285C11.6006 11.365 11.6083 12.3024 11.6561 13.2381C11.7058 14.216 11.7679 15.1945 11.8706 16.1678C11.9888 17.2876 12.1247 18.4077 12.3127 19.5178C12.5573 20.9615 12.8606 22.3953 13.1387 23.8333C13.1475 23.8793 13.1556 23.9255 13.1693 24C11.1894 23.5844 9.22271 23.5804 7.22338 23.9869Z" fill="#1ED1A8"/>
</svg>
