<svg width="11" height="14" viewBox="0 0 11 14" fill="none" xmlns="http://www.w3.org/2000/svg">
<path fill-rule="evenodd" clip-rule="evenodd" d="M5.5 3.18182C4.14997 3.18182 3.05556 4.32146 3.05556 5.72727C3.05556 7.13309 4.14997 8.27273 5.5 8.27273C6.85003 8.27273 7.94444 7.13309 7.94444 5.72727C7.94444 4.32146 6.85003 3.18182 5.5 3.18182ZM4.27778 5.72727C4.27778 5.02436 4.82499 4.45455 5.5 4.45455C6.17501 4.45455 6.72222 5.02436 6.72222 5.72727C6.72222 6.43018 6.17501 7 5.5 7C4.82499 7 4.27778 6.43018 4.27778 5.72727Z" fill="white"/>
<path fill-rule="evenodd" clip-rule="evenodd" d="M5.5 0C4.04131 0 2.64236 0.603407 1.61091 1.67748C0.579463 2.75155 0 4.20831 0 5.72727C0 6.37421 0.0659162 6.94408 0.237746 7.48388C0.410478 8.02652 0.680128 8.50712 1.05092 8.98888C1.05582 8.99525 1.06084 9.00152 1.06597 9.00768L5.03819 13.7804C5.15426 13.9199 5.32277 14 5.5 14C5.67723 14 5.84574 13.9199 5.96181 13.7804L9.93403 9.00768C9.93916 9.00152 9.94418 8.99525 9.94908 8.98888C10.3199 8.50712 10.5895 8.02652 10.7623 7.48388C10.9341 6.94408 11 6.37421 11 5.72727C11 4.20831 10.4205 2.75155 9.38909 1.67748C8.35764 0.603407 6.95869 0 5.5 0ZM2.47515 2.57743C3.27739 1.74204 4.36546 1.27273 5.5 1.27273C6.63454 1.27273 7.72261 1.74204 8.52485 2.57743C9.32708 3.41282 9.77778 4.54585 9.77778 5.72727C9.77778 6.28434 9.72086 6.71037 9.60211 7.08343C9.48519 7.45071 9.29857 7.79732 9.00251 8.18363L5.5 12.392L1.99749 8.18363C1.70143 7.79732 1.51481 7.45071 1.39789 7.08343C1.27914 6.71037 1.22222 6.28434 1.22222 5.72727C1.22222 4.54585 1.67292 3.41282 2.47515 2.57743Z" fill="white"/>
</svg>
